<svg width="45" height="45" viewBox="0 0 45 45" fill="none" xmlns="http://www.w3.org/2000/svg">
<g clip-path="url(#clip0_467_1600)">
<path d="M6.72211 37.8249C15.2526 46.3723 29.0988 46.3787 37.6376 37.8399C46.1764 29.3011 46.17 15.455 37.6225 6.92445C29.092 -1.62263 15.2459 -1.6294 6.70706 6.90941C-1.83174 15.4482 -1.82498 29.2944 6.72211 37.8249ZM1.87883 23.145H7.08688C7.26213 26.6149 8.63286 29.9175 10.9663 32.4916L7.28431 36.1732C3.978 32.6195 2.05972 27.9954 1.87883 23.145ZM12.0558 33.5811C14.6299 35.9141 17.9321 37.2845 21.402 37.4597V42.6678C16.5515 42.4869 11.9275 40.5682 8.37376 37.2619L12.0558 33.5811ZM22.9423 37.4597C26.4344 37.2834 29.7561 35.8968 32.337 33.5378L36.0179 37.2187C32.4585 40.5513 27.8153 42.4865 22.9423 42.6682V37.4597ZM33.4208 32.4435C35.7287 29.8761 37.0833 26.5927 37.2574 23.145H42.4654C42.2857 27.9736 40.3836 32.5785 37.1032 36.1262L33.4208 32.4435ZM37.2574 21.6047C37.0821 18.1348 35.7118 14.8322 33.378 12.2581L37.06 8.57611C40.3666 12.1299 42.2853 16.7539 42.4662 21.6047H37.2574ZM32.2893 11.169C29.7148 8.83559 26.4122 7.46485 22.9423 7.28961V2.0808C27.7931 2.26169 32.4171 4.18035 35.9709 7.48666L32.2893 11.169ZM21.402 7.28961C17.9543 7.46372 14.6713 8.81829 12.1035 11.1262L8.42077 7.44341C11.9689 4.16305 16.5734 2.26094 21.402 2.0808V7.28961ZM22.1721 8.81077C29.6516 8.81039 35.7366 14.8954 35.7366 22.3749C35.7366 29.8543 29.6516 35.9389 22.1721 35.9389C14.6927 35.9389 8.60767 29.8547 8.60767 22.3749C8.60767 14.895 14.6931 8.81039 22.1721 8.81039V8.81077ZM7.32831 8.5291L11.0096 12.2103C8.65016 14.7909 7.26363 18.1126 7.08726 21.6047H1.87921C2.06085 16.7321 3.99567 12.0889 7.32831 8.5291Z" fill="white"/>
<path d="M25.119 16.728C25.7581 16.728 26.2763 16.2185 26.2763 15.5901C26.2763 14.9617 25.7581 14.4522 25.119 14.4522C24.4798 14.4522 23.9617 14.9617 23.9617 15.5901C23.9617 16.2185 24.4798 16.728 25.119 16.728Z" fill="white"/>
<path d="M26.271 20.0604C26.271 17.6475 24.2864 15.6866 21.8449 15.6866C19.4034 15.6866 17.4187 17.6424 17.4187 20.0604C17.4187 22.4785 19.4034 24.4342 21.8449 24.4342C24.2864 24.4342 26.271 22.4785 26.271 20.0604ZM18.8095 20.0757C18.8095 18.4044 20.18 17.048 21.8753 17.048C23.5707 17.048 24.9411 18.4044 24.9411 20.0757C24.9411 21.747 23.5707 23.1033 21.8753 23.1033C20.18 23.1033 18.8095 21.747 18.8095 20.0757Z" fill="white"/>
<path d="M23.2561 24.3022C21.5811 24.3022 20.2207 25.6433 20.2207 27.2993C20.2207 28.9554 21.5811 30.2965 23.2561 30.2965C24.9312 30.2965 26.2915 28.9554 26.2915 27.2993C26.2915 25.6433 24.9312 24.3022 23.2561 24.3022ZM23.2764 29.0468C22.3019 29.0468 21.51 28.2645 21.51 27.3044C21.51 26.3443 22.3019 25.562 23.2764 25.562C24.251 25.562 25.0428 26.3443 25.0428 27.3044C25.0428 28.2645 24.251 29.0468 23.2764 29.0468Z" fill="white"/>
</g>
<defs>
<clipPath id="clip0_467_1600">
<rect width="43.7302" height="43.7302" fill="white" transform="translate(0.306885 0.509247)"/>
</clipPath>
</defs>
</svg>
